<?xml version="1.0" standalone="no"?>
<!DOCTYPE svg PUBLIC "-//W3C//DTD SVG 20010904//EN"
 "http://www.w3.org/TR/2001/REC-SVG-20010904/DTD/svg10.dtd">
<svg version="1.0" xmlns="http://www.w3.org/2000/svg"
 width="512.000000pt" height="512.000000pt" viewBox="0 0 512.000000 512.000000"
 preserveAspectRatio="xMidYMid meet">

<g transform="translate(0.000000,512.000000) scale(0.100000,-0.100000)"
fill="#000000" stroke="none">
<path d="M2380 4629 c-427 -55 -774 -276 -934 -596 -20 -40 -46 -107 -58 -150
-23 -78 -23 -82 -23 -753 0 -602 2 -680 17 -723 l16 -47 -86 -56 c-299 -195
-490 -438 -562 -714 -27 -106 -39 -381 -20 -473 43 -211 226 -383 536 -506
506 -201 1283 -264 1967 -161 480 73 869 233 1035 426 54 63 107 164 121 232
14 68 14 277 0 378 -42 307 -239 589 -555 801 l-112 74 17 47 c14 42 16 122
16 722 0 671 0 675 -23 753 -98 340 -396 604 -797 707 -184 47 -383 61 -555
39z m-100 -869 l40 -80 238 0 238 0 39 80 39 80 203 0 203 0 0 -278 0 -278 80
-39 80 -39 0 -206 0 -205 -80 -80 -80 -80 0 -120 0 -120 -197 -197 c-109 -109
-200 -198 -203 -198 -3 0 -24 36 -45 80 l-39 80 -238 0 -238 0 -41 -82 -41
-81 -199 199 -199 199 0 125 0 125 -80 80 -80 80 0 197 0 198 80 40 80 40 0
280 0 280 200 0 200 0 40 -80z m376 -2339 c152 -69 190 -261 75 -384 -89 -97
-253 -97 -342 0 -58 61 -83 164 -60 236 44 133 202 205 327 148z m-1561 -140
c80 -56 182 -106 280 -139 l60 -21 3 -160 2 -160 -42 14 c-24 9 -94 41 -157
72 -133 67 -216 137 -255 215 -24 47 -26 63 -26 175 l0 124 30 -34 c16 -19 64
-58 105 -86z m3040 -177 c-49 -100 -199 -207 -389 -279 l-66 -25 2 161 3 161
91 33 c50 17 117 46 150 64 70 37 188 124 212 156 16 22 17 19 20 -98 2 -112
1 -124 -23 -173z"/>
</g>
</svg>
